<?xml version="1.0" encoding="UTF-8"?>
<svg width="700pt" height="700pt" version="1.1" viewBox="0 0 700 700" xmlns="http://www.w3.org/2000/svg" xmlns:xlink="http://www.w3.org/1999/xlink">
 <defs>
  <symbol id="v" overflow="visible">
   <path d="m14.891-0.89062c-0.77344 0.39844-1.5742 0.69531-2.4062 0.89062-0.83594 0.20703-1.6992 0.3125-2.5938 0.3125-2.6992 0-4.8398-0.75-6.4219-2.25-1.5742-1.5078-2.3594-3.5547-2.3594-6.1406 0-2.5938 0.78516-4.6406 2.3594-6.1406 1.582-1.5078 3.7227-2.2656 6.4219-2.2656 0.89453 0 1.7578 0.10156 2.5938 0.29688 0.83203 0.19922 1.6328 0.5 2.4062 0.90625v3.3438c-0.78125-0.51953-1.5469-0.90625-2.2969-1.1562s-1.543-0.375-2.375-0.375c-1.4922 0-2.6641 0.48047-3.5156 1.4375-0.85547 0.96094-1.2812 2.2773-1.2812 3.9531 0 1.668 0.42578 2.9805 1.2812 3.9375 0.85156 0.94922 2.0234 1.4219 3.5156 1.4219 0.83203 0 1.625-0.11719 2.375-0.35938 0.75-0.25 1.5156-0.63281 2.2969-1.1562z"/>
  </symbol>
  <symbol id="d" overflow="visible">
   <path d="m10.891-8.8438c-0.34375-0.15625-0.68359-0.26953-1.0156-0.34375-0.33594-0.082031-0.67188-0.125-1.0156-0.125-1 0-1.7734 0.32422-2.3125 0.96875-0.53125 0.63672-0.79688 1.5547-0.79688 2.75v5.5938h-3.8906v-12.156h3.8906v2c0.5-0.78906 1.0703-1.3672 1.7188-1.7344 0.64453-0.36328 1.4219-0.54688 2.3281-0.54688 0.125 0 0.26562 0.007812 0.42188 0.015625 0.15625 0.011719 0.375 0.03125 0.65625 0.0625z"/>
  </symbol>
  <symbol id="b" overflow="visible">
   <path d="m14-6.1094v1.1094h-9.0781c0.09375 0.90625 0.42188 1.5898 0.98438 2.0469 0.5625 0.46094 1.3477 0.6875 2.3594 0.6875 0.82031 0 1.6602-0.11719 2.5156-0.35938 0.85156-0.25 1.7344-0.61719 2.6406-1.1094v3c-0.91797 0.34375-1.8398 0.60547-2.7656 0.78125-0.91797 0.17578-1.8359 0.26562-2.75 0.26562-2.1992 0-3.9062-0.55469-5.125-1.6719-1.2188-1.1133-1.8281-2.6797-1.8281-4.7031 0-1.9766 0.59766-3.5352 1.7969-4.6719 1.1953-1.1328 2.8438-1.7031 4.9375-1.7031 1.9141 0 3.4453 0.57422 4.5938 1.7188 1.1445 1.1484 1.7188 2.6836 1.7188 4.6094zm-4-1.2969c0-0.72656-0.21484-1.3164-0.64062-1.7656-0.42969-0.45703-0.99219-0.6875-1.6875-0.6875-0.75 0-1.3672 0.21484-1.8438 0.64062-0.46875 0.41797-0.76172 1.0234-0.875 1.8125z"/>
  </symbol>
  <symbol id="l" overflow="visible">
   <path d="m7.3125-5.4688c-0.8125 0-1.4219 0.14062-1.8281 0.42188-0.40625 0.27344-0.60938 0.67188-0.60938 1.2031 0 0.49219 0.16016 0.875 0.48438 1.1562 0.33203 0.28125 0.78906 0.42188 1.375 0.42188 0.72656 0 1.3438-0.25781 1.8438-0.78125 0.5-0.53125 0.75-1.1875 0.75-1.9688v-0.45312zm5.9375-1.4688v6.9375h-3.9219v-1.7969c-0.52344 0.74219-1.1094 1.2773-1.7656 1.6094-0.64844 0.33203-1.4336 0.5-2.3594 0.5-1.2617 0-2.2891-0.36328-3.0781-1.0938-0.78125-0.73828-1.1719-1.6914-1.1719-2.8594 0-1.4258 0.48828-2.4727 1.4688-3.1406 0.97656-0.66406 2.5195-1 4.625-1h2.2812v-0.29688c0-0.61328-0.24609-1.0625-0.73438-1.3438-0.48047-0.28906-1.2344-0.4375-2.2656-0.4375-0.82422 0-1.5938 0.085937-2.3125 0.25-0.71875 0.16797-1.3867 0.41797-2 0.75v-2.9688c0.83203-0.19531 1.6641-0.34766 2.5-0.45312 0.84375-0.10156 1.6875-0.15625 2.5312-0.15625 2.1875 0 3.7656 0.43359 4.7344 1.2969 0.97656 0.86719 1.4688 2.2656 1.4688 4.2031z"/>
  </symbol>
  <symbol id="a" overflow="visible">
   <path d="m6.1094-15.594v3.4375h4v2.7812h-4v5.1562c0 0.5625 0.10938 0.94531 0.32812 1.1406 0.22656 0.19922 0.67578 0.29688 1.3438 0.29688h2v2.7812h-3.3438c-1.5312 0-2.6211-0.31641-3.2656-0.95312-0.63672-0.64453-0.95312-1.7344-0.95312-3.2656v-5.1562h-1.9219v-2.7812h1.9219v-3.4375z"/>
  </symbol>
  <symbol id="f" overflow="visible">
   <path d="m10.141-10.375v-6.5h3.8906v16.875h-3.8906v-1.75c-0.54297 0.71094-1.1367 1.2305-1.7812 1.5625-0.63672 0.33203-1.3828 0.5-2.2344 0.5-1.4922 0-2.7188-0.59375-3.6875-1.7812-0.96094-1.1875-1.4375-2.7188-1.4375-4.5938s0.47656-3.4062 1.4375-4.5938c0.96875-1.1875 2.1953-1.7812 3.6875-1.7812 0.84375 0 1.5859 0.16797 2.2344 0.5 0.64453 0.33594 1.2383 0.85547 1.7812 1.5625zm-2.5625 7.875c0.82031 0 1.4531-0.30078 1.8906-0.90625 0.44531-0.61328 0.67188-1.5 0.67188-2.6562s-0.22656-2.0352-0.67188-2.6406c-0.4375-0.61328-1.0703-0.92188-1.8906-0.92188-0.83594 0-1.4688 0.30859-1.9062 0.92188-0.4375 0.60547-0.65625 1.4844-0.65625 2.6406s0.21875 2.043 0.65625 2.6562c0.4375 0.60547 1.0703 0.90625 1.9062 0.90625z"/>
  </symbol>
  <symbol id="k" overflow="visible">
   <path d="m8.3281-2.5c0.83203 0 1.4688-0.30078 1.9062-0.90625 0.4375-0.61328 0.65625-1.5 0.65625-2.6562s-0.21875-2.0352-0.65625-2.6406c-0.4375-0.61328-1.0742-0.92188-1.9062-0.92188-0.83594 0-1.4766 0.30859-1.9219 0.92188-0.4375 0.60547-0.65625 1.4844-0.65625 2.6406 0 1.1484 0.21875 2.0273 0.65625 2.6406 0.44531 0.61719 1.0859 0.92188 1.9219 0.92188zm-2.5781-7.875c0.53125-0.70703 1.1172-1.2266 1.7656-1.5625 0.65625-0.33203 1.4102-0.5 2.2656-0.5 1.4883 0 2.7109 0.59375 3.6719 1.7812 0.96875 1.1875 1.4531 2.7188 1.4531 4.5938s-0.48438 3.4062-1.4531 4.5938c-0.96094 1.1875-2.1836 1.7812-3.6719 1.7812-0.85547 0-1.6094-0.16797-2.2656-0.5-0.64844-0.33203-1.2344-0.85156-1.7656-1.5625v1.75h-3.8906v-16.875h3.8906z"/>
  </symbol>
  <symbol id="e" overflow="visible">
   <path d="m0.26562-12.156h3.8906l3.2656 8.25 2.7812-8.25h3.875l-5.1094 13.312c-0.51172 1.3438-1.1094 2.2852-1.7969 2.8281-0.67969 0.53906-1.5781 0.8125-2.7031 0.8125h-2.25v-2.5469h1.2188c0.65625 0 1.1328-0.10938 1.4375-0.32812 0.30078-0.21094 0.53516-0.58594 0.70312-1.125l0.10938-0.32812z"/>
  </symbol>
  <symbol id="j" overflow="visible">
   <path d="m11.875-2.9531h-6.5312l-1.0312 2.9531h-4.2031l6-16.203h4.9844l6 16.203h-4.2031zm-5.5-3h4.4375l-2.2031-6.4531z"/>
  </symbol>
  <symbol id="i" overflow="visible">
   <path d="m13.125-10.141c0.48828-0.75 1.0703-1.3164 1.75-1.7031 0.67578-0.39453 1.4219-0.59375 2.2344-0.59375 1.3945 0 2.457 0.43359 3.1875 1.2969 0.72656 0.85547 1.0938 2.1016 1.0938 3.7344v7.4062h-3.9062v-6.3281c0.007813-0.10156 0.015625-0.20312 0.015625-0.29688 0.007812-0.10156 0.015625-0.25 0.015625-0.4375 0-0.86328-0.13281-1.4883-0.39062-1.875-0.25-0.38281-0.65625-0.57812-1.2188-0.57812-0.74219 0-1.3125 0.30859-1.7188 0.92188-0.39844 0.60547-0.60156 1.4805-0.60938 2.625v5.9688h-3.9062v-6.3281c0-1.3516-0.12109-2.2227-0.35938-2.6094-0.23047-0.38281-0.64062-0.57812-1.2344-0.57812-0.74219 0-1.3125 0.30859-1.7188 0.92188-0.40625 0.60547-0.60938 1.4766-0.60938 2.6094v5.9844h-3.9062v-12.156h3.9062v1.7812c0.47656-0.6875 1.0234-1.2031 1.6406-1.5469 0.625-0.34375 1.3047-0.51562 2.0469-0.51562 0.84375 0 1.582 0.20312 2.2188 0.60938 0.64453 0.39844 1.1328 0.96094 1.4688 1.6875z"/>
  </symbol>
  <symbol id="h" overflow="visible">
   <path d="m14.078-7.4062v7.4062h-3.9062v-5.6406c0-1.0625-0.027344-1.7891-0.078125-2.1875-0.042969-0.39453-0.12109-0.69141-0.23438-0.89062-0.14844-0.25-0.35156-0.44141-0.60938-0.57812-0.26172-0.14453-0.55859-0.21875-0.89062-0.21875-0.8125 0-1.4531 0.3125-1.9219 0.9375-0.46094 0.625-0.6875 1.4922-0.6875 2.5938v5.9844h-3.8906v-16.875h3.8906v6.5c0.58203-0.70703 1.2031-1.2266 1.8594-1.5625 0.66406-0.33203 1.3945-0.5 2.1875-0.5 1.4062 0 2.4688 0.43359 3.1875 1.2969 0.72656 0.85547 1.0938 2.1016 1.0938 3.7344z"/>
  </symbol>
  <symbol id="u" overflow="visible">
   <path d="m11.359-11.766v2.9531c-0.83594-0.35156-1.6367-0.61328-2.4062-0.78125-0.77344-0.17578-1.5-0.26562-2.1875-0.26562-0.74219 0-1.293 0.09375-1.6562 0.28125-0.35547 0.17969-0.53125 0.46094-0.53125 0.84375 0 0.3125 0.13281 0.55469 0.40625 0.71875 0.26953 0.16797 0.75391 0.28906 1.4531 0.35938l0.6875 0.10938c1.9883 0.25 3.3281 0.66797 4.0156 1.25 0.6875 0.57422 1.0312 1.4805 1.0312 2.7188 0 1.293-0.48047 2.2656-1.4375 2.9219-0.94922 0.64844-2.3711 0.96875-4.2656 0.96875-0.80469 0-1.6367-0.0625-2.5-0.1875-0.85547-0.125-1.7344-0.3125-2.6406-0.5625v-2.9531c0.78125 0.375 1.5781 0.65625 2.3906 0.84375s1.6328 0.28125 2.4688 0.28125c0.75781 0 1.332-0.10156 1.7188-0.3125 0.38281-0.20703 0.57812-0.51953 0.57812-0.9375 0-0.34375-0.13672-0.59766-0.40625-0.76562-0.26172-0.17578-0.78125-0.3125-1.5625-0.40625l-0.6875-0.09375c-1.7305-0.20703-2.9453-0.60156-3.6406-1.1875-0.6875-0.59375-1.0312-1.4844-1.0312-2.6719 0-1.2891 0.4375-2.2422 1.3125-2.8594 0.88281-0.625 2.2383-0.9375 4.0625-0.9375 0.71875 0 1.4688 0.054688 2.25 0.15625 0.78906 0.10547 1.6484 0.27734 2.5781 0.51562z"/>
  </symbol>
  <symbol id="t" overflow="visible">
   <path d="m13.312-15.688v3.4219c-0.88672-0.39453-1.7578-0.69141-2.6094-0.89062-0.84375-0.20703-1.6406-0.3125-2.3906-0.3125-1 0-1.7422 0.14062-2.2188 0.42188-0.48047 0.27344-0.71875 0.69922-0.71875 1.2812 0 0.42969 0.16016 0.76562 0.48438 1.0156 0.32031 0.24219 0.90625 0.44531 1.75 0.60938l1.7812 0.35938c1.8008 0.36719 3.082 0.91797 3.8438 1.6562 0.75781 0.74219 1.1406 1.7891 1.1406 3.1406 0 1.793-0.53125 3.125-1.5938 4-1.0547 0.86719-2.668 1.2969-4.8438 1.2969-1.0312 0-2.0703-0.10156-3.1094-0.29688-1.0312-0.1875-2.0625-0.47266-3.0938-0.85938v-3.5312c1.0312 0.55469 2.0312 0.96875 3 1.25 0.96875 0.27344 1.8984 0.40625 2.7969 0.40625 0.90625 0 1.5977-0.14844 2.0781-0.45312 0.48828-0.30078 0.73438-0.73438 0.73438-1.2969 0-0.50781-0.16797-0.89844-0.5-1.1719-0.32422-0.26953-0.97656-0.51562-1.9531-0.73438l-1.625-0.35938c-1.6172-0.35156-2.7969-0.90625-3.5469-1.6562-0.75-0.75781-1.125-1.7852-1.125-3.0781 0-1.6133 0.51953-2.8516 1.5625-3.7188 1.0391-0.86328 2.5391-1.2969 4.5-1.2969 0.88281 0 1.7969 0.070313 2.7344 0.20312 0.9375 0.125 1.9102 0.32422 2.9219 0.59375z"/>
  </symbol>
  <symbol id="g" overflow="visible">
   <path d="m1.7344-4.7344v-7.4219h3.9062v1.2188c0 0.65625-0.007813 1.4844-0.015625 2.4844v1.9844c0 0.98047 0.019531 1.6875 0.0625 2.125 0.050781 0.42969 0.14062 0.73438 0.26562 0.92188 0.15625 0.26172 0.36328 0.46094 0.625 0.59375 0.25781 0.13672 0.55469 0.20312 0.89062 0.20312 0.80078 0 1.4297-0.30469 1.8906-0.92188 0.46875-0.625 0.70312-1.4922 0.70312-2.6094v-6h3.8906v12.156h-3.8906v-1.75c-0.58594 0.71094-1.2031 1.2305-1.8594 1.5625s-1.375 0.5-2.1562 0.5c-1.4062 0-2.4805-0.42578-3.2188-1.2812-0.73047-0.86328-1.0938-2.1172-1.0938-3.7656z"/>
  </symbol>
  <symbol id="s" overflow="visible">
   <path d="m1.8594-12.156h3.8906v12.156h-3.8906zm0-4.7188h3.8906v3.1562h-3.8906z"/>
  </symbol>
  <symbol id="c" overflow="visible">
   <path d="m7.6562-9.6719c-0.86719 0-1.5273 0.3125-1.9844 0.9375-0.44922 0.61719-0.67188 1.5078-0.67188 2.6719 0 1.168 0.22266 2.0586 0.67188 2.6719 0.45703 0.61719 1.1172 0.92188 1.9844 0.92188 0.84375 0 1.4883-0.30469 1.9375-0.92188 0.44531-0.61328 0.67188-1.5039 0.67188-2.6719 0-1.1641-0.22656-2.0547-0.67188-2.6719-0.44922-0.625-1.0938-0.9375-1.9375-0.9375zm0-2.7656c2.082 0 3.7109 0.5625 4.8906 1.6875 1.1758 1.125 1.7656 2.6875 1.7656 4.6875s-0.58984 3.5625-1.7656 4.6875c-1.1797 1.125-2.8086 1.6875-4.8906 1.6875-2.1055 0-3.75-0.5625-4.9375-1.6875-1.1797-1.125-1.7656-2.6875-1.7656-4.6875s0.58594-3.5625 1.7656-4.6875c1.1875-1.125 2.832-1.6875 4.9375-1.6875z"/>
  </symbol>
  <symbol id="r" overflow="visible">
   <path d="m9.8594-16.875v2.5469h-2.1406c-0.55469 0-0.9375 0.10156-1.1562 0.29688-0.21875 0.19922-0.32812 0.54297-0.32812 1.0312v0.84375h3.3281v2.7812h-3.3281v9.375h-3.875v-9.375h-1.9375v-2.7812h1.9375v-0.84375c0-1.3203 0.36328-2.2969 1.0938-2.9219 0.73828-0.63281 1.8828-0.95312 3.4375-0.95312z"/>
  </symbol>
  <symbol id="q" overflow="visible">
   <path d="m2.0469-16.203h4.6562l5.8906 11.109v-11.109h3.9688v16.203h-4.6719l-5.8906-11.109v11.109h-3.9531z"/>
  </symbol>
  <symbol id="p" overflow="visible">
   <path d="m14.078-7.4062v7.4062h-3.9062v-5.6562c0-1.0508-0.027344-1.7734-0.078125-2.1719-0.042969-0.39453-0.12109-0.69141-0.23438-0.89062-0.14844-0.25-0.35156-0.44141-0.60938-0.57812-0.26172-0.14453-0.55859-0.21875-0.89062-0.21875-0.8125 0-1.4531 0.3125-1.9219 0.9375-0.46094 0.625-0.6875 1.4922-0.6875 2.5938v5.9844h-3.8906v-12.156h3.8906v1.7812c0.58203-0.70703 1.2031-1.2266 1.8594-1.5625 0.66406-0.33203 1.3945-0.5 2.1875-0.5 1.4062 0 2.4688 0.43359 3.1875 1.2969 0.72656 0.85547 1.0938 2.1016 1.0938 3.7344z"/>
  </symbol>
  <symbol id="o" overflow="visible">
   <path d="m2.0469-16.203h6.9219c2.0625 0 3.6445 0.46094 4.75 1.375 1.1016 0.91797 1.6562 2.2188 1.6562 3.9062 0 1.7109-0.55469 3.0234-1.6562 3.9375-1.1055 0.90625-2.6875 1.3594-4.75 1.3594h-2.75v5.625h-4.1719zm4.1719 3.0312v4.5312h2.3125c0.8125 0 1.4375-0.19531 1.875-0.59375 0.4375-0.39453 0.65625-0.95703 0.65625-1.6875 0-0.71875-0.21875-1.2695-0.65625-1.6562-0.4375-0.39453-1.0625-0.59375-1.875-0.59375z"/>
  </symbol>
  <symbol id="n" overflow="visible">
   <path d="m1.8594-12.156h3.8906v11.938c0 1.625-0.39062 2.8633-1.1719 3.7188-0.78125 0.86328-1.9141 1.2969-3.3906 1.2969h-1.9219v-2.5469h0.67188c0.73828 0 1.2422-0.16797 1.5156-0.5 0.26953-0.33594 0.40625-0.99219 0.40625-1.9688zm0-4.7188h3.8906v3.1562h-3.8906z"/>
  </symbol>
  <symbol id="m" overflow="visible">
   <path d="m11.688-11.766v3.1562c-0.53125-0.35156-1.0625-0.61719-1.5938-0.79688-0.53125-0.17578-1.0859-0.26562-1.6562-0.26562-1.0859 0-1.9297 0.32031-2.5312 0.95312-0.60547 0.63672-0.90625 1.5234-0.90625 2.6562 0 1.1367 0.30078 2.0234 0.90625 2.6562 0.60156 0.625 1.4453 0.9375 2.5312 0.9375 0.61328 0 1.1914-0.085938 1.7344-0.26562 0.53906-0.17578 1.0469-0.44141 1.5156-0.79688v3.1719c-0.61719 0.23047-1.2344 0.39453-1.8594 0.5-0.625 0.11328-1.25 0.17188-1.875 0.17188-2.1875 0-3.9023-0.5625-5.1406-1.6875-1.2422-1.125-1.8594-2.6875-1.8594-4.6875s0.61719-3.5625 1.8594-4.6875c1.2383-1.125 2.9531-1.6875 5.1406-1.6875 0.63281 0 1.2578 0.058594 1.875 0.17188 0.625 0.10547 1.2422 0.27344 1.8594 0.5z"/>
  </symbol>
 </defs>
 <g>
  <path d="m403.33 173.33c0 4.9102-3.9766 8.8906-8.8867 8.8906-4.9102 0-8.8906-3.9805-8.8906-8.8906 0-4.9062 3.9805-8.8867 8.8906-8.8867 4.9102 0 8.8867 3.9805 8.8867 8.8867"/>
  <path d="m314.45 173.33c0 4.9102-3.9805 8.8906-8.8906 8.8906-4.9102 0-8.8867-3.9805-8.8867-8.8906 0-4.9062 3.9766-8.8867 8.8867-8.8867 4.9102 0 8.8906 3.9805 8.8906 8.8867"/>
  <path d="m350 200c8.5703 0 17.027-2.3008 24.465-6.6523 2.1211-1.2383 2.832-3.9648 1.5898-6.0781-1.2344-2.1211-3.957-2.832-6.0781-1.5898-12.328 7.2227-27.625 7.2227-39.957 0-2.125-1.2383-4.8398-0.52344-6.0781 1.5898-1.2383 2.1172-0.52734 4.8398 1.5898 6.0781 7.4414 4.3516 15.898 6.6523 24.469 6.6523z"/>
  <path d="m492.26 434.71c2.5039-45.676-44.23-81.707-46.156-83.164-3.5625-2.8359-7.7617-4.5273-12.422-5.1562-3.0391-1.6562-4.9766-6.6406-5.4219-8.3242-3.293-12.449-10.832-16.438-16.574-17.59-10.008-2.0195-21.914 3.2539-29.977 8.9688l-0.52344-24.121c27.965-10.203 50.91-32.02 61.516-49.691 2.5273-4.1992 4.9492-9.5039 7.2461-15.676 13.105-0.17969 25.441-9.6992 30.809-24.285 6.8203-18.551-0.35156-38.691-16-44.91-0.12891-0.050781-0.26562-0.085938-0.39453-0.13281 14.809-64.973-2.2852-104.77-19.551-126.79-21.848-27.867-56.434-43.844-94.902-43.844-38.363 0.027344-72.867 15.977-94.652 43.766-17.262 22.012-34.359 61.824-19.566 126.86-0.12891 0.050781-0.26562 0.085937-0.39062 0.13281-15.676 6.2031-22.871 26.355-16.043 44.91 5.3633 14.582 17.699 24.109 30.805 24.285 2.293 6.1719 4.7148 11.473 7.2461 15.672 10.609 17.68 33.555 39.496 61.52 49.699l-0.51953 24.125c-8.0195-5.7109-19.863-10.961-29.914-8.9883-5.7695 1.1406-13.336 5.1211-16.641 17.621-0.44531 1.6758-2.3789 6.6484-5.418 8.3125-4.6719 0.625-8.8594 2.3164-12.348 5.0938-2.0078 1.5234-48.738 37.555-46.238 83.23-17.766 33.504-29.719 73.945-35.484 120.3-0.16016 1.2617 0.23438 2.5352 1.0781 3.4883 0.84375 0.95703 2.0508 1.5 3.3281 1.5h75.555l-4.4297-110.91c-0.10938-2.4531 1.7852-4.5352 4.2383-4.6406 2.4062-0.17969 4.5273 1.7852 4.6406 4.2383l4.4375 111.31h177.78l4.457-111.29c0.097656-2.4531 2.1484-4.4922 4.6172-4.2617 2.4531 0.09375 4.3594 2.1641 4.2617 4.6172l-4.4453 110.93h75.555c1.2773 0 2.4883-0.54688 3.3281-1.5039 0.84375-0.95703 1.2383-2.2227 1.0859-3.4883-5.7188-46.258-17.676-86.699-35.488-120.3zm-19.852-222.11c-3.543 9.6211-11.168 16.418-19.324 18.031 4.293-14.238 7.6992-31.891 9.8359-50.812 10.117 5.1523 14.426 19.367 9.4883 32.781zm-244.82-0.007812c-4.9297-13.395-0.625-27.582 9.5273-32.777 2.1562 19.215 5.4844 36.574 9.793 50.82-8.1484-1.5977-15.777-8.4141-19.32-18.043zm37.332 38.445c-2.6367-4.375-5.1914-10.133-7.6055-17.117-5.1367-14.895-9.2031-35.051-11.57-57.031 34.379-11.078 57.633-22.25 73.863-35.777-1.1992 3.9805-2.6875 8.3906-4.4766 12.75-0.71094 1.7422-0.25391 3.7383 1.1406 4.9922 1.3945 1.2578 3.4375 1.4922 5.0898 0.60156 50.508-27.367 70.457-56.027 77.844-70.613 1.418 2.9453 2.7461 5.7148 4.0039 8.3438 15.059 31.414 20.316 42.328 51.262 78.07-2.3242 22.516-6.4844 43.297-11.793 58.664-2.4141 6.9805-4.9727 12.742-7.6094 17.125-9.8281 16.379-32.734 38.059-59.805 46.957-16.988 5.6016-33.559 5.6055-50.555-0.003906-27.059-8.8984-49.961-30.578-59.789-46.961zm107.65 67.449c-4.9336 2.7969-14.191 5.957-22.574 5.957s-17.641-3.1602-22.574-5.957l0.22656-10.398c7.5 1.9766 14.992 3.0195 22.348 3.0195s14.852-1.043 22.348-3.0195zm-156.02 110.54c1.5195-38.617 42.367-70.141 42.879-70.535 2.5273-2.0078 5.4492-3.1367 8.9414-3.4531 13.898-1.3008 29.883 11.367 30.043 11.492 1.9219 1.5273 4.7148 1.2227 6.2461-0.6875 1.5352-1.9141 1.2305-4.707-0.68359-6.2383-0.61719-0.50391-12.57-10.008-26.336-12.785 1.7539-3.1016 2.5547-5.9336 2.6992-6.4844 1.7305-6.5508 4.9258-10.199 9.7695-11.16 10.23-2.0234 25.281 7.957 28.965 12.812 0.10938 0.13672 10.48 13.129 14.977 26.035-0.14844 0.23828-0.25391 0.44141-0.28906 0.51562 0 0-0.69922 1.3984-1.6836 3.7227-5.8672 0.20703-11.637 4.125-17.547 11.895-6.5352-0.23047-25.18-0.35547-44.512 4.5547-2.3789 0.60547-3.8164 3.0234-3.2148 5.3984 0.51172 2.0117 2.3203 3.3516 4.3086 3.3516 0.36328 0 0.73047-0.042969 1.0977-0.13672 14.117-3.5859 28.125-4.3008 36.465-4.3516-3.0664 5.2266-6.1914 11.484-9.3438 18.711-34.539 0.44531-68.93 12.059-82.781 17.344zm109.99 71.883c-0.32812 5.6094-0.63672 10.742-0.97656 15.23-0.14062 1.8477-0.77734 2.5547-1.2461 2.9297-0.80078 0.63672-2.1406 0.97656-3.793 1.0781 0.38672-3.0664 1.0039-6.9961 1.3672-9.3359 0.91406-5.8477 1.1055-7.0703-1.1406-8.7109-1.9766-1.4531-4.7656-1.0195-6.207 0.96094-0.57422 0.78516-0.85156 1.6992-0.85938 2.6055-0.074218 0.63281-0.29688 2.0273-0.57422 3.7773-0.57031 3.6367-1.0742 6.9727-1.4141 9.6914-1.9375-0.32812-4.1055-0.64844-6.4297-0.95703 1.0273-4.168 2.6367-10.027 3.7539-13.938 0.67578-2.3594-0.6875-4.8203-3.0508-5.4922-2.3594-0.67969-4.8164 0.6875-5.4961 3.0508-0.34766 1.2031-2.7344 9.582-4.0938 15.297-2.2344-0.26172-4.3906-0.49219-6.457-0.71094 2.8086-9.5391 4.8086-13.574 4.8633-13.676 1.1211-2.1719 0.27734-4.8516-1.8984-5.9805-2.1836-1.1484-4.8672-0.28516-5.9961 1.8906-0.10938 0.21875-2.5742 5.0664-5.8945 16.648-0.875-0.31641-1.3242-0.77344-1.5781-1.1367-1.1992-1.7344-1.2695-5.2852-0.17188-9.5742 7.9648-33.223 17.84-64.82 27.098-86.711 0-0.003906 0-0.003906 0.003907-0.007812 0-0.003906 0.003906-0.003906 0.003906-0.007812 4.8125-11.363 9.4961-20.289 13.938-26.547 2.707-3.8359 5.3164-6.625 7.6797-8.3125-1.7109 5.0195-3.3203 10.688-4.1914 16.23-0.58984 3.8594-0.58203 7.3516-0.054687 10.438-3.1367 5-12.438 21.348-17.43 46.805-0.47266 2.4102 1.0977 4.7422 3.5078 5.2188 0.28906 0.058593 0.57422 0.085937 0.85938 0.085937 2.0781 0 3.9414-1.4727 4.3555-3.5898 3.5234-17.969 9.3984-31.203 13.254-38.527 1.9336 2.2383 4.3945 3.9961 7.2852 5.2188-5.9922 25.754-7.7539 54.648-9.0156 76.059zm30.832-84.684c-3.1211 1.0586-7.4219 1.5469-13.531 1.5469-0.14844 0-1-0.035156-2.1523-0.26562-4.8203-0.99609-7.8359-3.7148-8.9648-8.1367-0.64453-2.3789-0.69922-5.3516-0.16797-8.8164 1.2891-8.1719 4.4258-16.875 6.8516-22.781 1.2617-3.1797 2.2461-5.1602 2.2383-5.1602 0.003906-0.003907 0.10547-0.16797 0.47266-0.50781 2.832-2.7734 8.6406-2.0352 16.258 2.1797 0.20313 0.10938 0.42188 0.22266 0.83594 0.48438 1.5625 0.91406 2.9102 2.2383 3.9102 3.8359 0.066406 0.13281 0.13281 0.26953 0.21484 0.39844 0.96484 1.5938 1.6172 3.4883 1.8984 5.5039l2.3359 16.008c0.36719 3.1562 0.20312 5.543-0.55469 7.6172-0.75391 2.2383-2.25 4.0312-4.5703 5.4883-1.6875 1.0781-3.0273 1.9258-5.0742 2.6055zm63.191 97.895c-0.25 0.36328-0.69922 0.8125-1.5781 1.1328-3.3203-11.578-5.7812-16.422-5.8945-16.645-1.1289-2.168-3.8047-3.0117-5.9766-1.8906s-3.0312 3.7969-1.9141 5.9766c0.023438 0.042969 2.0352 4.0625 4.8633 13.68-2.0742 0.21875-4.2344 0.45312-6.457 0.71094-1.3594-5.7188-3.7461-14.094-4.0938-15.297-0.67969-2.3555-3.1523-3.7344-5.4961-3.0508-2.3594 0.67187-3.7227 3.1328-3.0508 5.4922 1.1211 3.9102 2.7305 9.7695 3.7539 13.938-2.3477 0.3125-4.5273 0.63281-6.4297 0.95703-0.33594-2.7188-0.84375-6.0586-1.4141-9.6914-0.27734-1.75-0.49609-3.1484-0.57422-3.7773-0.003906-0.90625-0.28125-1.8164-0.85938-2.6055-1.4492-1.9766-4.2305-2.4141-6.207-0.96094-2.25 1.6406-2.0586 2.8633-1.1406 8.7109 0.36328 2.3438 0.97656 6.2695 1.3672 9.3438-1.6562-0.10156-2.9961-0.44531-3.793-1.0781-0.46484-0.375-1.1016-1.0781-1.2461-2.9297-0.35156-4.5469-0.65625-9.7617-0.99609-15.449-1.293-21.898-3.0977-51.484-9.457-77.648 1.1875-0.62109 2.2227-1.2695 3.2305-1.9102 1.6406-1.0312 3.0117-2.2383 4.2266-3.543 4.3242 6.8594 11.227 20.031 13.219 36.836 0.26953 2.2578 2.1875 3.9219 4.4102 3.9219 0.17969 0 0.35156-0.007812 0.52734-0.03125 2.4375-0.28906 4.1797-2.5039 3.8906-4.9375-2.7148-22.906-13.418-39.359-17.355-44.75 0.60547-2.6914 0.69141-5.6836 0.26953-9.2773l-2.1211-14.516c1.8281 1.7305 3.75 4.0078 5.7227 6.8672 4.3008 6.1328 8.8906 14.914 13.637 26.117 0 0.003907 0.003907 0.007813 0.003907 0.007813v0.003906c9.2578 21.891 19.133 53.488 27.117 86.777 1.0859 4.2266 1.0156 7.7812-0.18359 9.5156zm-19.898-102.44c-3.1602-7.2461-6.207-13.375-9.2031-18.504 8.2695-0.14844 22.418 0.47266 36.414 5.1602 0.46484 0.15625 0.94141 0.23047 1.4141 0.23047 1.8594 0 3.5898-1.1719 4.2148-3.0352 0.77734-2.3242-0.47656-4.8438-2.8008-5.625-19.207-6.4414-38.172-5.8828-44.965-5.4062-5.3984-7.1875-10.699-11.121-16.066-12.059-1.1367-1.5195-2.4492-2.8594-3.875-3.9492 4.4102-13.066 15.023-26.375 15.133-26.516 0.10547-0.13281 0.20703-0.28125 0.30078-0.42578 4.1172-4.9805 18.578-14.418 28.703-12.375 4.8164 0.96875 8 4.6133 9.7227 11.125 0.14844 0.5625 0.94922 3.418 2.7148 6.5273-13.75 2.793-25.734 12.262-26.352 12.766-1.9141 1.5391-2.2188 4.3281-0.68359 6.2383s4.3242 2.2188 6.2461 0.6875c0.16016-0.125 16.184-12.812 30.066-11.488 3.4727 0.3125 6.3906 1.4414 8.9961 3.5117 0.4375 0.33203 41.285 31.852 42.801 70.473-13.859-5.2812-48.105-16.863-82.781-17.336z"/>
  <path d="m386.71 131.18c0.10938-0.023438 11.738-1.9258 19.742 3.7383 0.77734 0.55078 1.6758 0.81641 2.5586 0.81641 1.3945 0 2.7695-0.65234 3.6367-1.8789 1.4141-2.0039 0.9375-4.7773-1.0664-6.1953-11.074-7.8203-25.777-5.3359-26.398-5.2344-2.4141 0.42187-4.0234 2.7148-3.6055 5.1328 0.42188 2.4102 2.6992 4.0391 5.1328 3.6211z"/>

 </g>
</svg>
